<svg width="325" height="368" viewBox="0 0 325 368" fill="none" xmlns="http://www.w3.org/2000/svg">
<g clip-path="url(#clip0_407_702)">
<path d="M325.671 257.471V85.8238L177.012 0V65.9004L235.249 99.6169C237.548 101.149 237.548 104.215 235.249 104.981L166.284 144.828C163.985 146.36 161.686 145.594 160.153 144.828L91.1877 104.981C88.8889 104.215 88.8889 100.383 91.1877 99.6169L149.425 65.9004V0L0 85.8238V257.471L56.705 224.521V157.088C56.705 154.789 59.7701 153.257 61.3027 154.023L130.268 193.87C132.567 195.402 133.333 196.935 133.333 199.234V278.927C133.333 281.226 130.268 282.759 128.736 281.992L70.4981 248.276L13.7931 281.226L162.452 367.816L311.111 281.992L254.406 249.042L196.169 282.759C193.87 284.291 191.571 282.759 191.571 279.693V200C191.571 197.701 193.103 195.402 194.636 194.636L263.602 154.789C265.9 153.257 268.199 154.789 268.199 157.854V225.287L325.671 257.471Z" fill="#4C4C4C"/>
<path d="M162.452 367.816L311.111 281.992L254.406 249.042L196.169 282.759C193.87 284.291 191.571 282.759 191.571 279.693V200C191.571 197.701 193.103 195.402 194.636 194.636L263.602 154.789C265.9 153.257 268.199 154.789 268.199 157.854V225.287L324.904 258.238V85.8237L162.452 180.077V367.816Z" fill="black"/>
<path d="M177.012 0V65.9004L235.249 99.6169C237.548 101.149 237.548 104.215 235.249 104.981L166.284 144.828C163.985 146.36 161.686 145.594 160.153 144.828L91.1877 104.981C88.8889 104.215 88.8889 100.383 91.1877 99.6169L149.425 65.9004V0L0 85.8238L162.452 180.077L324.904 85.8238L177.012 0Z" fill="#808080"/>
<path d="M129.502 282.759L71.2644 249.042L14.5594 281.992L163.218 367.816V180.077L0 85.8237V257.471L56.705 224.521V157.088C56.705 154.789 59.7701 153.257 61.3027 154.023L130.268 193.87C132.567 195.402 133.333 196.935 133.333 199.234V278.927C134.1 281.992 131.801 284.291 129.502 282.759Z" fill="#4C4C4C"/>
</g>
<defs>
<clipPath id="clip0_407_702">
<rect width="325" height="368" fill="white"/>
</clipPath>
</defs>
</svg>
